<?xml version="1.0" encoding="UTF-8"?><svg id="Layer_2" xmlns="http://www.w3.org/2000/svg" viewBox="0 0 43.25 55.66"><g id="Capa_1"><path d="M11.61,31.36c-.56-.43-1.24-.68-1.97-.68-1.94,0-3.52,1.76-3.52,3.93,0,1.68.94,3.11,2.26,3.68,0,0,4.77,2.35,10.97-1.88,0,0-3.88-2.1-7.75-5.06Z" style="fill:#fff;"/><path d="M36.97,36.74c0-3.65-2.96-6.61-6.61-6.61-2.16,0-4.08,1.04-5.28,2.64,0,0,0,0,0,0-8.99,11.97-18.95,7.16-18.95,7.16,1.82,6.14,8.21,9.93,15.57,9.93,0,0,15.28-.13,15.28-12.98,0-.03,0-.05,0-.07,0-.02,0-.05,0-.07Z" style="fill:#fff;"/><path d="M21.77,14.29l1.58,4.87h5.12c.15,0,.21.19.09.27l-4.15,3.01,1.58,4.87c.05.14-.11.26-.23.17l-4.15-3.01-4.15,3.01c-.12.09-.28-.03-.23-.17l1.58-4.87-4.15-3.01c-.12-.09-.06-.27.09-.27h5.12l1.58-4.87c.05-.14.24-.14.29,0Z" style="fill:#fff;"/><path d="M33.56,19l2.96-1.89c-3.5-5.47-7.56-10.01-10.09-12.62l-2.52,2.46c2.41,2.5,6.32,6.86,9.65,12.06Z" style="fill:#fff;"/><path d="M39.73,36.33c0,4.55-2.2,8.65-5.72,11.53l2.13,2.8c.2-.16.41-.33.6-.5,4.2-3.66,6.51-8.58,6.51-13.83,0-5.63-2.18-11.35-5.07-16.45l-2.96,1.89c2.59,4.6,4.51,9.66,4.51,14.56Z" style="fill:#fff;"/><path d="M21.39,4.89l2.74-2.67c-.06-.06-.11-.1-.13-.12l-2.29-2.1-2.36,2.02c-.51.43-8.31,7.18-13.85,16.61l3.17,1.54c4.81-8.05,11.42-14.11,12.73-15.27Z" style="fill:#fff;"/><path d="M21.62,52.14c-10,0-18.11-7.08-18.11-15.82,0-2.42.41-4.83,1.1-7.18l-3.31-1.18c-.82,2.71-1.31,5.51-1.31,8.36,0,5.25,2.31,10.17,6.51,13.83,4.06,3.55,9.43,5.5,15.12,5.5,4.28,0,8.37-1.1,11.87-3.16l-2.15-2.83c-2.81,1.56-6.14,2.47-9.72,2.47Z" style="fill:#fff;"/><path d="M7.11,22.99l-3.16-1.53c-.57,1.13-1.1,2.29-1.57,3.47l3.31,1.18c.43-1.06.91-2.1,1.42-3.12Z" style="fill:#fff;"/></g></svg>