<svg viewBox="0 0 96 96" xmlns="http://www.w3.org/2000/svg" xmlns:xlink="http://www.w3.org/1999/xlink" id="Icons_Neighbourhood1" overflow="hidden"><style>
.MsftOfcThm_Text2_Fill_v2 {
 fill:#001E60; 
}
</style>
<g id="Icons"><path d="M25.004 22.003 30.004 22.003 30.004 24.004 25.004 24.004 25.004 22.003 25.004 22.003Z" class="MsftOfcThm_Text2_Fill_v2" fill="#001E60"/><path d="M31.844 18.342 28.364 14.791 29.784 13.341 33.254 16.892 31.844 18.342 31.844 18.342 31.844 18.342Z" class="MsftOfcThm_Text2_Fill_v2" fill="#001E60"/><path d="M44.0046 23.1237C44.0038 26.4376 41.3167 29.1234 38.0029 29.1226 34.689 29.1218 32.0032 26.4348 32.004 23.1209 32.0048 19.8076 34.691 17.122 38.0043 17.122 41.3185 17.1224 44.005 19.8095 44.0046 23.1237Z" class="MsftOfcThm_Text2_Fill_v2" fill="#001E60"/><path d="M37.004 10 39.004 10 39.004 15.001 37.004 15.001 37.004 10 37.004 10Z" class="MsftOfcThm_Text2_Fill_v2" fill="#001E60"/><path d="M46.005 22.003 51.005 22.003 51.005 24.004 46.005 24.004 46.005 22.003 46.005 22.003Z" class="MsftOfcThm_Text2_Fill_v2" fill="#001E60"/><path d="M44.165 18.342 47.645 14.791 46.225 13.341 42.755 16.892 44.165 18.342 44.165 18.342 44.165 18.342Z" class="MsftOfcThm_Text2_Fill_v2" fill="#001E60"/><path d="M31.844 27.775 28.364 31.336 29.784 32.776 33.254 29.225 31.844 27.775 31.844 27.775 31.844 27.775Z" class="MsftOfcThm_Text2_Fill_v2" fill="#001E60"/><path d="M37.004 31.126 39.004 31.126 39.004 36.127 37.004 36.127 37.004 31.126 37.004 31.126Z" class="MsftOfcThm_Text2_Fill_v2" fill="#001E60"/><path d="M44.165 27.775 47.645 31.336 46.225 32.776 42.755 29.225 44.165 27.775 44.165 27.775 44.165 27.775Z" class="MsftOfcThm_Text2_Fill_v2" fill="#001E60"/><path d="M87.3876 68.7407C91.03 68.085 93.7616 64.551 93.7616 59.5173 93.7616 53.9311 87.9945 42.3822 86.1735 42.3822 84.3522 42.3822 78.5852 53.9189 78.5852 59.5173 78.5852 64.551 81.3473 68.085 84.9594 68.7407L84.9594 80 79.3424 80 79.3424 69.0679C77.7298 67.4763 76.5909 65.4682 76.0526 63.2673L65.0351 52.666 50.7277 66.4329 50.7277 80 38.2819 80 38.2819 66.4329 23.9745 52.666 9.66717 66.4329 9.66717 80 4.00482 80 4.00482 86 92.0048 86 92.0048 80 87.3876 80ZM70.758 68.7031 76.481 68.7031 76.481 74.4996 70.758 74.4996ZM53.5893 68.7031 59.3122 68.7031 59.3122 74.4996 53.5893 74.4996ZM62.1736 68.7031 67.8967 68.7031 67.8967 80 62.1736 80ZM29.6975 68.7031 35.4203 68.7031 35.4203 74.4996 29.6975 74.4996ZM12.5286 68.7031 18.2515 68.7031 18.2515 74.4996 12.5286 74.4996ZM21.113 68.7031 26.836 68.7031 26.836 80 21.113 80Z" class="MsftOfcThm_Text2_Fill_v2" fill="#001E60"/><path d="M65.0351 49.9609 75.6037 60.1231C75.5959 59.9217 75.5853 59.7214 75.5853 59.5173 75.5993 58.5015 75.7095 57.4894 75.9144 56.4943L65.0351 46 45.843 64.4836 47.989 66.3193Z" class="MsftOfcThm_Text2_Fill_v2" fill="#001E60"/><path d="M23.975 49.961 41.025 66.323 43.171 64.488 35.42 57.013 35.42 48.898 31.605 48.898 31.605 53.342 23.975 46 4.778 64.488 6.924 66.323 23.975 49.961Z" class="MsftOfcThm_Text2_Fill_v2" fill="#001E60"/></g></svg>