<svg viewBox="0 0 96 96" xmlns="http://www.w3.org/2000/svg" xmlns:xlink="http://www.w3.org/1999/xlink" id="Icons_Court_M" overflow="hidden"><style>
.MsftOfcThm_Text2_Fill_v2 {
 fill:#001E60; 
}
.MsftOfcThm_Text2_Stroke_v2 {
 stroke:#001E60; 
}
</style>
<g id="Icons"><path d="M79 75.021 79 72 76 72 76 41 79 41 79 36 84 36 84 34 48 12 12 34 12 36 17 36 17 41 20 41 20 72 17 72 17 75.021 10 80.021 10 84 86 84 86 80.022ZM74 72 70 72 70 41 74 41ZM28 41 36 41 36 72 28 72ZM38 41 42 41 42 72 38 72ZM44 41 52 41 52 72 44 72ZM54 41 58 41 58 72 54 72ZM60 41 68 41 68 72 60 72ZM15.866 33.981 48 14.347 80.134 33.981C80.1393 33.9827 80.1421 33.9884 80.1404 33.9936 80.1394 33.9966 80.137 33.999 80.134 34L15.872 34C15.866 33.9992 15.8617 33.9937 15.8625 33.9876 15.8629 33.9851 15.8641 33.9827 15.866 33.981ZM19 36 77 36 77 39 19 39ZM22 41 26 41 26 72 22 72ZM19 76.05 19 74 77 74 77 76.05 77.837 76.65 78.329 77.002 17.671 77.002 18.163 76.65ZM84 82 12 82 12 81.052 14.871 79 81.132 79 84 81.052Z" class="MsftOfcThm_Text2_Fill_v2 MsftOfcThm_Text2_Stroke_v2" stroke="#001E60" fill="#001E60"/></g></svg>